<svg data-type="logoElastic" xmlns="http://www.w3.org/2000/svg" width="420" height="421" fill="none" viewBox="0 0 420 421">
<g fill="none" fill-rule="evenodd">
<path style="fill:#080204; stroke:none;" d="M85.2,59.3c29.1-20.2,60.8-34.8,96-41c31.6-5.6,62.5-2.8,91.8,11.7c22.7,11.2,40.8,27.7,56.3,47.3c-12.2,12.1-24.3,24-36.7,36.2c-0.8-0.9-2.2-2.5-3.5-4.1c-16.6-19.7-37.5-32-62.9-36.2c-19.5-3.2-38.4,0.2-56.7,7.1c-6.6,2.5-13,5.9-19.5,8.7c-2.2,1-3.1,2.3-3.1,4.9c0.1,41,0.1,82,0,123c0,3,1.5,4.1,3.6,5.2c10.6,5.4,21.8,9.2,33.4,10.8c12.5,1.7,25.1,2.9,37.7,3c29.4,0.3,51.4-13.2,67.4-37.4c0.5-0.8,1.1-1.6,1.9-2.9c14.6,9.6,29.1,19.1,43.8,28.7c-20.5,32.1-46.4,56.8-83.7,67.3c-16.7,4.7-33.7,5.6-50.9,3.9c-17.8-1.8-34.8-6.3-51.4-13c-0.4-0.2-1-0.1-1.8-0.2c0,41.9,0,83.6,0,125.6c-20.7,0-41.1,0-61.8,0C85.2,291.6,85.2,175.6,85.2,59.3z"/>
<path style="fill:#2583BB; stroke:none;" d="M297.6,183.6c2.4-5.5,4.5-10.4,6.8-15.7c4.5,2.1,8.7,4.1,13,5.9c4.9,1.9,9.9,3.5,14.8,5.4c7.2,2.8,14.3,5.6,21.3,8.6c2.5,1,3.2,3.1,1.9,5.7c-2,4.1-4,8.3-6.1,13C332,198.7,315,191.3,297.6,183.6z"/>
<path style="fill:#2583BB; stroke:none;" d="M306.6,158.6c0.4-5.6,0.8-10.6,1.2-16c18.2,0.9,36,1.8,54.6,2.7c-0.8,6-1.5,11.6-2.4,17.9C342.3,161.7,324.7,160.2,306.6,158.6z"/>
<path style="fill:#2583BB; stroke:none;" d="M353.3,110.1c-6,3.1-11.8,6-17.5,9.2c-4.3,2.4-8.4,5.1-12.6,7.6c-3.8,2.3-7.6,4.5-11.4,6.8c-1.9,1.1-3.1,0.1-4.1-1.4c-2.1-3.2-4.3-6.3-6.6-9.7c0.6-0.6,1-1.3,1.6-1.7c12.7-8.2,25.4-16.3,38.1-24.4c2.5-1.6,4.2,0.2,5.4,1.9C348.7,101.9,350.7,105.7,353.3,110.1z"/>
</g>
</svg>